<svg xmlns="http://www.w3.org/2000/svg" xmlns:xlink="http://www.w3.org/1999/xlink" fill="none" stroke="none" stroke-linecap="square" stroke-miterlimit="10" version="1.1" viewBox="0.0 0.0 960.0 720.0">
    <clipPath id="p.0">
        <path d="m0 0l960.0 0l0 720.0l-960.0 0l0 -720.0z" clip-rule="nonzero"/>
    </clipPath>
    <g clip-path="url(#p.0)">
        <path fill="#000000" fill-opacity="0.0" fill-rule="evenodd" d="m0 0l960.0 0l0 720.0l-960.0 0z"/>
        <path fill="#000000" fill-opacity="0.0" fill-rule="evenodd" d="m340.34055 420.0304l0 0c0 -10.222351 8.286865 -18.509186 18.509186 -18.509186l260.46198 0c4.9089355 0 9.616821 1.9500732 13.087952 5.4212036c3.4711304 3.471161 5.4212036 8.179047 5.4212036 13.087982l0 74.03674c0 10.222351 -8.286804 18.509155 -18.509155 18.509155l-260.46198 0l0 0c-10.222321 0 -18.509186 -8.286804 -18.509186 -18.509155z"/>
        <path fill-rule="evenodd" stroke="#ed3e44" stroke-linecap="butt" stroke-linejoin="round" stroke-width="8.0" d="m340.34055 420.0304l0 0c0 -10.222351 8.286865 -18.509186 18.509186 -18.509186l260.46198 0c4.9089355 0 9.616821 1.9500732 13.087952 5.4212036c3.4711304 3.471161 5.4212036 8.179047 5.4212036 13.087982l0 74.03674c0 10.222351 -8.286804 18.509155 -18.509155 18.509155l-260.46198 0l0 0c-10.222321 0 -18.509186 -8.286804 -18.509186 -18.509155z"/>
        <path fill="#000000" fill-opacity="0.0" fill-rule="evenodd" d="m315.71646 75.354294l0 0c0 -20.479473 16.601898 -37.081367 37.08136 -37.081367l272.54593 0c9.834595 0 19.266357 3.9067764 26.22052 10.860882c6.9541016 6.9541054 10.86084 16.385899 10.86084 26.220486l0 148.32545c0 20.479477 -16.601868 37.08136 -37.08136 37.08136l-272.54593 0c-20.479462 0 -37.08136 -16.601883 -37.08136 -37.08136z"/>
        <path fill-rule="evenodd" stroke="#ed3e44" stroke-linecap="butt" stroke-linejoin="round" stroke-width="8.0" d="m315.71646 75.354294l0 0c0 -20.479473 16.601898 -37.081367 37.08136 -37.081367l272.54593 0c9.834595 0 19.266357 3.9067764 26.22052 10.860882c6.9541016 6.9541054 10.86084 16.385899 10.86084 26.220486l0 148.32545c0 20.479477 -16.601868 37.08136 -37.08136 37.08136l-272.54593 0c-20.479462 0 -37.08136 -16.601883 -37.08136 -37.08136z"/>
        <path fill="#ed3e44" fill-rule="evenodd" d="m315.70865 69.32554l0 0c0 -2.2932587 1.8590698 -4.152313 4.152313 -4.152313l338.40405 0c1.1012573 0 2.1574097 0.4374771 2.9360962 1.2161865c0.77874756 0.7787094 1.2161865 1.8348694 1.2161865 2.9361267l0 16.608765c0 2.2932587 -1.8590088 4.152313 -4.1522827 4.152313l-338.40405 0c-2.2932434 0 -4.152313 -1.8590546 -4.152313 -4.152313z"/>
        <path fill-rule="evenodd" stroke="#ed3e44" stroke-linecap="butt" stroke-linejoin="round" stroke-width="1.0" d="m315.70865 69.32554l0 0c0 -2.2932587 1.8590698 -4.152313 4.152313 -4.152313l338.40405 0c1.1012573 0 2.1574097 0.4374771 2.9360962 1.2161865c0.77874756 0.7787094 1.2161865 1.8348694 1.2161865 2.9361267l0 16.608765c0 2.2932587 -1.8590088 4.152313 -4.1522827 4.152313l-338.40405 0c-2.2932434 0 -4.152313 -1.8590546 -4.152313 -4.152313z"/>
        <path fill="#ed3e44" fill-rule="evenodd" d="m343.2047 56.225723l291.71655 0l0 -17.952759l-291.71655 0z"/>
        <path fill-rule="evenodd" stroke="#ed3e44" stroke-linecap="butt" stroke-linejoin="round" stroke-width="1.0" d="m343.2047 56.225723l291.71655 0l0 -17.952759l-291.71655 0z"/>
        <path fill="#ed3e44" fill-rule="evenodd" d="m371.2944 442.95642l0 0c0 -4.2676086 3.4595642 -7.7272034 7.727173 -7.7272034l32.8291 0l0 0c2.0493774 0 4.014801 0.81411743 5.463928 2.2632446c1.4491272 1.4491272 2.2632446 3.4145813 2.2632446 5.4639587l0 30.907806c0 4.2676086 -3.4595642 7.7272034 -7.727173 7.7272034l-32.8291 0c-4.2676086 0 -7.727173 -3.4595947 -7.727173 -7.7272034z"/>
        <path fill-rule="evenodd" stroke="#ed3e44" stroke-linecap="butt" stroke-linejoin="round" stroke-width="1.0" d="m371.2944 442.95642l0 0c0 -4.2676086 3.4595642 -7.7272034 7.727173 -7.7272034l32.8291 0l0 0c2.0493774 0 4.014801 0.81411743 5.463928 2.2632446c1.4491272 1.4491272 2.2632446 3.4145813 2.2632446 5.4639587l0 30.907806c0 4.2676086 -3.4595642 7.7272034 -7.727173 7.7272034l-32.8291 0c-4.2676086 0 -7.727173 -3.4595947 -7.727173 -7.7272034z"/>
        <path fill="#ed3e44" fill-rule="evenodd" d="m442.89053 439.60406l0 0c0 -0.5392456 0.4371338 -0.9764099 0.9763794 -0.9764099l137.19681 0c0.25897217 0 0.5073242 0.102874756 0.6904297 0.28598022c0.18310547 0.18313599 0.2859497 0.43148804 0.2859497 0.6904297l0 3.905487c0 0.5392456 -0.4371338 0.9763794 -0.9763794 0.9763794l-137.19681 0c-0.5392456 0 -0.9763794 -0.4371338 -0.9763794 -0.9763794z"/>
        <path fill-rule="evenodd" stroke="#ed3e44" stroke-linecap="butt" stroke-linejoin="round" stroke-width="1.0" d="m442.89053 439.60406l0 0c0 -0.5392456 0.4371338 -0.9764099 0.9763794 -0.9764099l137.19681 0c0.25897217 0 0.5073242 0.102874756 0.6904297 0.28598022c0.18310547 0.18313599 0.2859497 0.43148804 0.2859497 0.6904297l0 3.905487c0 0.5392456 -0.4371338 0.9763794 -0.9763794 0.9763794l-137.19681 0c-0.5392456 0 -0.9763794 -0.4371338 -0.9763794 -0.9763794z"/>
        <path fill="#ed3e44" fill-rule="evenodd" d="m442.89053 465.79614l0 0c0 -0.5392456 0.4371338 -0.9764099 0.9763794 -0.9764099l121.95273 0c0.25897217 0 0.5073242 0.102874756 0.6904297 0.28598022c0.18310547 0.18313599 0.2859497 0.43148804 0.2859497 0.6904297l0 3.905487c0 0.5392456 -0.4371338 0.9763794 -0.9763794 0.9763794l-121.95273 0l0 0c-0.5392456 0 -0.9763794 -0.4371338 -0.9763794 -0.9763794z"/>
        <path fill-rule="evenodd" stroke="#ed3e44" stroke-linecap="butt" stroke-linejoin="round" stroke-width="1.0" d="m442.89053 465.79614l0 0c0 -0.5392456 0.4371338 -0.9764099 0.9763794 -0.9764099l121.95273 0c0.25897217 0 0.5073242 0.102874756 0.6904297 0.28598022c0.18310547 0.18313599 0.2859497 0.43148804 0.2859497 0.6904297l0 3.905487c0 0.5392456 -0.4371338 0.9763794 -0.9763794 0.9763794l-121.95273 0l0 0c-0.5392456 0 -0.9763794 -0.4371338 -0.9763794 -0.9763794z"/>
        <path fill="#000000" fill-opacity="0.0" fill-rule="evenodd" d="m50.9882 590.24896l0 0c0 -10.097656 8.185787 -18.283447 18.283466 -18.283447l87.33858 0c4.8490753 0 9.4995575 1.9262695 12.92836 5.3551025c3.4288177 3.428833 5.3551025 8.079285 5.3551025 12.928345l0 73.13391c0 10.097656 -8.185776 18.283447 -18.283463 18.283447l-87.33858 0c-10.097679 0 -18.283466 -8.185791 -18.283466 -18.283447z"/>
        <path fill-rule="evenodd" stroke="#ed3e44" stroke-linecap="butt" stroke-linejoin="round" stroke-width="8.0" d="m50.9882 590.24896l0 0c0 -10.097656 8.185787 -18.283447 18.283466 -18.283447l87.33858 0c4.8490753 0 9.4995575 1.9262695 12.92836 5.3551025c3.4288177 3.428833 5.3551025 8.079285 5.3551025 12.928345l0 73.13391c0 10.097656 -8.185776 18.283447 -18.283463 18.283447l-87.33858 0c-10.097679 0 -18.283466 -8.185791 -18.283466 -18.283447z"/>
        <path fill="#ed3e44" fill-rule="evenodd" d="m82.493904 607.2669l0 0c0 -5.3895874 4.369133 -9.758728 9.758728 -9.758728l41.45893 0l0 0c2.5881653 0 5.070343 1.0281372 6.9004517 2.8582764c1.8301239 1.8300781 2.8582764 4.312256 2.8582764 6.9004517l0 39.03369c0 5.3896484 -4.3691406 9.758728 -9.758728 9.758728l-41.45893 0c-5.389595 0 -9.758728 -4.3690796 -9.758728 -9.758728z"/>
        <path fill-rule="evenodd" stroke="#ed3e44" stroke-linecap="butt" stroke-linejoin="round" stroke-width="1.0" d="m82.493904 607.2669l0 0c0 -5.3895874 4.369133 -9.758728 9.758728 -9.758728l41.45893 0l0 0c2.5881653 0 5.070343 1.0281372 6.9004517 2.8582764c1.8301239 1.8300781 2.8582764 4.312256 2.8582764 6.9004517l0 39.03369c0 5.3896484 -4.3691406 9.758728 -9.758728 9.758728l-41.45893 0c-5.389595 0 -9.758728 -4.3690796 -9.758728 -9.758728z"/>
        <path fill="#000000" fill-opacity="0.0" fill-rule="evenodd" d="m669.89557 594.74347l0 0c0 -8.856873 7.1799316 -16.036743 16.036743 -16.036743l198.22577 0c4.253174 0 8.332214 1.6895752 11.339661 4.6970215c3.0074463 3.0075073 4.6970825 7.086487 4.6970825 11.339722l0 64.14697c0 8.856873 -7.1799316 16.036743 -16.036743 16.036743l-198.22577 0c-8.856812 0 -16.036743 -7.1798706 -16.036743 -16.036743z"/>
        <path fill-rule="evenodd" stroke="#ed3e44" stroke-linecap="butt" stroke-linejoin="round" stroke-width="8.0" d="m669.89557 594.74347l0 0c0 -8.856873 7.1799316 -16.036743 16.036743 -16.036743l198.22577 0c4.253174 0 8.332214 1.6895752 11.339661 4.6970215c3.0074463 3.0075073 4.6970825 7.086487 4.6970825 11.339722l0 64.14697c0 8.856873 -7.1799316 16.036743 -16.036743 16.036743l-198.22577 0c-8.856812 0 -16.036743 -7.1798706 -16.036743 -16.036743z"/>
        <path fill="#ed3e44" fill-rule="evenodd" d="m707.9007 610.1493l0 0c0 -0.60302734 0.48883057 -1.0918579 1.0918579 -1.0918579l152.58789 0c0.28961182 0 0.5673218 0.114990234 0.7720947 0.31976318c0.20477295 0.20477295 0.31976318 0.48254395 0.31976318 0.7720947l0 4.3674316c0 0.60302734 -0.48883057 1.0918579 -1.0918579 1.0918579l-152.58789 0c-0.60302734 0 -1.0918579 -0.48883057 -1.0918579 -1.0918579z"/>
        <path fill-rule="evenodd" stroke="#ed3e44" stroke-linecap="butt" stroke-linejoin="round" stroke-width="1.0" d="m707.9007 610.1493l0 0c0 -0.60302734 0.48883057 -1.0918579 1.0918579 -1.0918579l152.58789 0c0.28961182 0 0.5673218 0.114990234 0.7720947 0.31976318c0.20477295 0.20477295 0.31976318 0.48254395 0.31976318 0.7720947l0 4.3674316c0 0.60302734 -0.48883057 1.0918579 -1.0918579 1.0918579l-152.58789 0c-0.60302734 0 -1.0918579 -0.48883057 -1.0918579 -1.0918579z"/>
        <path fill="#ed3e44" fill-rule="evenodd" d="m707.9007 639.27905l0 0c0 -0.60302734 0.48883057 -1.091919 1.0918579 -1.091919l135.61151 0c0.28961182 0 0.5673218 0.11505127 0.7720947 0.31982422c0.20477295 0.20477295 0.31976318 0.4824829 0.31976318 0.7720947l0 4.3673706c0 0.60302734 -0.48883057 1.091919 -1.0918579 1.091919l-135.61151 0l0 0c-0.60302734 0 -1.0918579 -0.4888916 -1.0918579 -1.091919z"/>
        <path fill-rule="evenodd" stroke="#ed3e44" stroke-linecap="butt" stroke-linejoin="round" stroke-width="1.0" d="m707.9007 639.27905l0 0c0 -0.60302734 0.48883057 -1.091919 1.0918579 -1.091919l135.61151 0c0.28961182 0 0.5673218 0.11505127 0.7720947 0.31982422c0.20477295 0.20477295 0.31976318 0.4824829 0.31976318 0.7720947l0 4.3673706c0 0.60302734 -0.48883057 1.091919 -1.0918579 1.091919l-135.61151 0l0 0c-0.60302734 0 -1.0918579 -0.4888916 -1.0918579 -1.091919z"/>
        <path fill="#ed3e44" fill-rule="evenodd" d="m383.31802 119.075424l0 0c0 -4.308197 3.4924927 -7.800682 7.8006897 -7.800682l33.123047 0l0 0c2.0688477 0 4.0529785 0.82185364 5.5158997 2.2847672c1.4629211 1.4629135 2.2847595 3.4470444 2.2847595 5.515915l0 31.201782c0 4.308197 -3.4924622 7.8006897 -7.800659 7.8006897l-33.123047 0c-4.308197 0 -7.8006897 -3.4924927 -7.8006897 -7.8006897z"/>
        <path fill-rule="evenodd" stroke="#ed3e44" stroke-linecap="butt" stroke-linejoin="round" stroke-width="1.0" d="m383.31802 119.075424l0 0c0 -4.308197 3.4924927 -7.800682 7.8006897 -7.800682l33.123047 0l0 0c2.0688477 0 4.0529785 0.82185364 5.5158997 2.2847672c1.4629211 1.4629135 2.2847595 3.4470444 2.2847595 5.515915l0 31.201782c0 4.308197 -3.4924622 7.8006897 -7.800659 7.8006897l-33.123047 0c-4.308197 0 -7.8006897 -3.4924927 -7.8006897 -7.8006897z"/>
        <path fill="#ed3e44" fill-rule="evenodd" d="m455.7622 115.689865l0 0c0 -0.5392456 0.4371643 -0.97639465 0.9764099 -0.97639465l138.83463 0c0.25891113 0 0.5072632 0.10286713 0.69036865 0.28598022c0.1831665 0.18310547 0.28601074 0.43145752 0.28601074 0.6904144l0 3.9054718c0 0.53925323 -0.4371338 0.9764023 -0.9763794 0.9764023l-138.83463 0c-0.5392456 0 -0.9764099 -0.43714905 -0.9764099 -0.9764023z"/>
        <path fill-rule="evenodd" stroke="#ed3e44" stroke-linecap="butt" stroke-linejoin="round" stroke-width="1.0" d="m455.7622 115.689865l0 0c0 -0.5392456 0.4371643 -0.97639465 0.9764099 -0.97639465l138.83463 0c0.25891113 0 0.5072632 0.10286713 0.69036865 0.28598022c0.1831665 0.18310547 0.28601074 0.43145752 0.28601074 0.6904144l0 3.9054718c0 0.53925323 -0.4371338 0.9764023 -0.9763794 0.9764023l-138.83463 0c-0.5392456 0 -0.9764099 -0.43714905 -0.9764099 -0.9764023z"/>
        <path fill="#ed3e44" fill-rule="evenodd" d="m455.7622 142.19238l0 0c0 -0.5392456 0.4371643 -0.97639465 0.9764099 -0.97639465l123.433014 0c0.25897217 0 0.5073242 0.102874756 0.6904297 0.28598022c0.18310547 0.18310547 0.28601074 0.43145752 0.28601074 0.6904144l0 3.9054718c0 0.53926086 -0.43719482 0.97639465 -0.9764404 0.97639465l-123.433014 0l0 0c-0.5392456 0 -0.9764099 -0.4371338 -0.9764099 -0.97639465z"/>
        <path fill-rule="evenodd" stroke="#ed3e44" stroke-linecap="butt" stroke-linejoin="round" stroke-width="1.0" d="m455.7622 142.19238l0 0c0 -0.5392456 0.4371643 -0.97639465 0.9764099 -0.97639465l123.433014 0c0.25897217 0 0.5073242 0.102874756 0.6904297 0.28598022c0.18310547 0.18310547 0.28601074 0.43145752 0.28601074 0.6904144l0 3.9054718c0 0.53926086 -0.43719482 0.97639465 -0.9764404 0.97639465l-123.433014 0l0 0c-0.5392456 0 -0.9764099 -0.4371338 -0.9764099 -0.97639465z"/>
        <path fill="#ed3e44" fill-rule="evenodd" d="m383.31802 196.19965l0 0c0 -4.308197 3.4924927 -7.8006897 7.8006897 -7.8006897l33.123047 0l0 0c2.0688477 0 4.0529785 0.82185364 5.5158997 2.2847748c1.4629211 1.4629059 2.2847595 3.4470367 2.2847595 5.515915l0 31.201782c0 4.308197 -3.4924622 7.8006744 -7.800659 7.8006744l-33.123047 0c-4.308197 0 -7.8006897 -3.4924774 -7.8006897 -7.8006744z"/>
        <path fill-rule="evenodd" stroke="#ed3e44" stroke-linecap="butt" stroke-linejoin="round" stroke-width="1.0" d="m383.31802 196.19965l0 0c0 -4.308197 3.4924927 -7.8006897 7.8006897 -7.8006897l33.123047 0l0 0c2.0688477 0 4.0529785 0.82185364 5.5158997 2.2847748c1.4629211 1.4629059 2.2847595 3.4470367 2.2847595 5.515915l0 31.201782c0 4.308197 -3.4924622 7.8006744 -7.800659 7.8006744l-33.123047 0c-4.308197 0 -7.8006897 -3.4924774 -7.8006897 -7.8006744z"/>
        <path fill="#ed3e44" fill-rule="evenodd" d="m455.7622 192.81409l0 0c0 -0.53926086 0.4371643 -0.97639465 0.9764099 -0.97639465l138.83463 0c0.25891113 0 0.5072632 0.1028595 0.69036865 0.28598022c0.1831665 0.18310547 0.28601074 0.43145752 0.28601074 0.6904144l0 3.9054718c0 0.5392456 -0.4371338 0.97639465 -0.9763794 0.97639465l-138.83463 0c-0.5392456 0 -0.9764099 -0.43714905 -0.9764099 -0.97639465z"/>
        <path fill-rule="evenodd" stroke="#ed3e44" stroke-linecap="butt" stroke-linejoin="round" stroke-width="1.0" d="m455.7622 192.81409l0 0c0 -0.53926086 0.4371643 -0.97639465 0.9764099 -0.97639465l138.83463 0c0.25891113 0 0.5072632 0.1028595 0.69036865 0.28598022c0.1831665 0.18310547 0.28601074 0.43145752 0.28601074 0.6904144l0 3.9054718c0 0.5392456 -0.4371338 0.97639465 -0.9763794 0.97639465l-138.83463 0c-0.5392456 0 -0.9764099 -0.43714905 -0.9764099 -0.97639465z"/>
        <path fill="#ed3e44" fill-rule="evenodd" d="m455.7622 219.3166l0 0c0 -0.5392456 0.4371643 -0.97639465 0.9764099 -0.97639465l123.433014 0c0.25897217 0 0.5073242 0.1028595 0.6904297 0.28598022c0.18310547 0.18310547 0.28601074 0.43145752 0.28601074 0.6904144l0 3.9054718c0 0.5392456 -0.43719482 0.97639465 -0.9764404 0.97639465l-123.433014 0l0 0c-0.5392456 0 -0.9764099 -0.43714905 -0.9764099 -0.97639465z"/>
        <path fill-rule="evenodd" stroke="#ed3e44" stroke-linecap="butt" stroke-linejoin="round" stroke-width="1.0" d="m455.7622 219.3166l0 0c0 -0.5392456 0.4371643 -0.97639465 0.9764099 -0.97639465l123.433014 0c0.25897217 0 0.5073242 0.1028595 0.6904297 0.28598022c0.18310547 0.18310547 0.28601074 0.43145752 0.28601074 0.6904144l0 3.9054718c0 0.5392456 -0.43719482 0.97639465 -0.9764404 0.97639465l-123.433014 0l0 0c-0.5392456 0 -0.9764099 -0.43714905 -0.9764099 -0.97639465z"/>
        <path fill="#000000" fill-opacity="0.0" fill-rule="evenodd" d="m112.940956 571.9655l0 -114.92914l227.40158 0"/>
        <path fill-rule="evenodd" stroke="#ed3e44" stroke-linecap="butt" stroke-linejoin="round" stroke-width="8.0" d="m112.940956 541.6455l0 -84.60913l197.08157 0"/>
        <path fill-rule="nonzero" stroke="#ed3e44" stroke-linecap="butt" stroke-width="8.0" d="m112.940956 567.9655c-7.2680664 0 -13.160004 -5.891968 -13.160004 -13.160034c0 -7.2680664 5.8919373 -13.159973 13.160004 -13.159973c7.2680664 0 13.159996 5.8919067 13.159996 13.159973c0 7.2680664 -5.8919296 13.160034 -13.159996 13.160034z"/>
        <path fill-rule="nonzero" stroke="#ed3e44" stroke-linecap="butt" stroke-width="8.0" d="m336.34253 457.03638c0 7.2680664 -5.8919067 13.160004 -13.160004 13.160004c-7.2680664 0 -13.159973 -5.8919373 -13.159973 -13.160004c0 -7.2680664 5.8919067 -13.160004 13.159973 -13.160004c7.268097 0 13.160004 5.8919373 13.160004 13.160004z"/>
        <path fill="#000000" fill-opacity="0.0" fill-rule="evenodd" d="m489.08072 401.5212l0 -70.372314l0.06298828 0l0 -70.383606"/>
        <path fill-rule="evenodd" stroke="#ed3e44" stroke-linecap="butt" stroke-linejoin="round" stroke-width="8.0" d="m489.08072 371.2012l0 -40.052307l0.06298828 0l0 -40.0636"/>
        <path fill-rule="nonzero" stroke="#ed3e44" stroke-linecap="butt" stroke-width="8.0" d="m489.08072 397.5212c-7.2680664 0 -13.160004 -5.8919373 -13.160004 -13.160004c0 -7.2680664 5.8919373 -13.160004 13.160004 -13.160004c7.2680664 0 13.160004 5.8919373 13.160004 13.160004c0 7.2680664 -5.8919373 13.160004 -13.160004 13.160004z"/>
        <path fill-rule="nonzero" stroke="#ed3e44" stroke-linecap="butt" stroke-width="8.0" d="m489.1437 264.7653c7.2680664 0 13.160004 5.8919373 13.160004 13.160004c0 7.2680664 -5.8919373 13.160004 -13.160004 13.160004c-7.2680664 0 -13.160004 -5.8919373 -13.160004 -13.160004c0 -7.2680664 5.8919373 -13.160004 13.160004 -13.160004z"/>
        <path fill="#000000" fill-opacity="0.0" fill-rule="evenodd" d="m785.04517 578.7067l0 -121.66931l-147.21259 0"/>
        <path fill-rule="evenodd" stroke="#ed3e44" stroke-linecap="butt" stroke-linejoin="round" stroke-width="8.0" d="m785.04517 548.3867l0 -91.34927l-116.89258 0"/>
        <path fill-rule="nonzero" stroke="#ed3e44" stroke-linecap="butt" stroke-width="8.0" d="m785.04517 574.7067c-7.2680664 0 -13.159973 -5.8919067 -13.159973 -13.159973c0 -7.2680664 5.8919067 -13.160034 13.159973 -13.160034c7.2680664 0 13.160034 5.891968 13.160034 13.160034c0 7.2680664 -5.891968 13.159973 -13.160034 13.159973z"/>
        <path fill-rule="nonzero" stroke="#ed3e44" stroke-linecap="butt" stroke-width="8.0" d="m641.8326 457.03745c0 -7.2680664 5.891968 -13.160004 13.160034 -13.160004c7.2680664 0 13.159973 5.8919373 13.159973 13.160004c0 7.2680664 -5.8919067 13.160004 -13.159973 13.160004c-7.2680664 0 -13.160034 -5.8919373 -13.160034 -13.160004z"/>
        <path fill="#ed3e44" fill-rule="evenodd" d="m345.4357 89.9895l0 0c-14.281128 0 -25.858276 -11.577141 -25.858276 -25.858269c0 -14.281128 11.577148 -25.858269 25.858276 -25.858269c14.281128 0 25.858276 11.577141 25.858276 25.858269l-25.858276 0z"/>
        <path fill-rule="evenodd" stroke="#ed3e44" stroke-linecap="butt" stroke-linejoin="round" stroke-width="1.0" d="m345.4357 89.9895l0 0c-14.281128 0 -25.858276 -11.577141 -25.858276 -25.858269c0 -14.281128 11.577148 -25.858269 25.858276 -25.858269c14.281128 0 25.858276 11.577141 25.858276 25.858269l-25.858276 0z"/>
        <path fill="#ed3e44" fill-rule="evenodd" d="m343.2546 69.94751l291.71652 0l0 -17.952759l-291.71652 0z"/>
        <path fill-rule="evenodd" stroke="#ed3e44" stroke-linecap="butt" stroke-linejoin="round" stroke-width="1.0" d="m343.2546 69.94751l291.71652 0l0 -17.952759l-291.71652 0z"/>
        <path fill="#ed3e44" fill-rule="evenodd" d="m610.7402 64.13123l0 0c0 -12.854752 11.027161 -23.275589 24.629883 -23.275589c13.602722 0 24.629944 10.420837 24.629944 23.275589c0 12.854752 -11.027222 23.275589 -24.629944 23.275589l0 -23.275589z"/>
        <path fill-rule="evenodd" stroke="#ed3e44" stroke-linecap="butt" stroke-linejoin="round" stroke-width="1.0" d="m610.7402 64.13123l0 0c0 -12.854752 11.027161 -23.275589 24.629883 -23.275589c13.602722 0 24.629944 10.420837 24.629944 23.275589c0 12.854752 -11.027222 23.275589 -24.629944 23.275589l0 -23.275589z"/>
        <path fill="#343a40" fill-rule="evenodd" d="m343.25497 64.129974l0 0c0 -4.287819 3.4759521 -7.7637825 7.7637634 -7.7637825l0 0c2.059082 0 4.033844 0.8179703 5.4898376 2.27396c1.4559937 1.4559898 2.2739563 3.4307365 2.2739563 5.4898224l0 0c0 4.287819 -3.4759521 7.7637787 -7.763794 7.7637787l0 0c-4.2878113 0 -7.7637634 -3.4759598 -7.7637634 -7.7637787z"/>
        <path fill-rule="evenodd" stroke="#343a40" stroke-linecap="butt" stroke-linejoin="round" stroke-width="1.0" d="m343.25497 64.129974l0 0c0 -4.287819 3.4759521 -7.7637825 7.7637634 -7.7637825l0 0c2.059082 0 4.033844 0.8179703 5.4898376 2.27396c1.4559937 1.4559898 2.2739563 3.4307365 2.2739563 5.4898224l0 0c0 4.287819 -3.4759521 7.7637787 -7.763794 7.7637787l0 0c-4.2878113 0 -7.7637634 -3.4759598 -7.7637634 -7.7637787z"/>
        <path fill="#343a40" fill-rule="evenodd" d="m368.95898 64.129974l0 0c0 -4.287819 3.4759827 -7.7637825 7.763794 -7.7637825l0 0c2.059082 0 4.033844 0.8179703 5.489807 2.27396c1.4559937 1.4559898 2.2739868 3.4307365 2.2739868 5.4898224l0 0c0 4.287819 -3.4759827 7.7637787 -7.763794 7.7637787l0 0c-4.2878113 0 -7.763794 -3.4759598 -7.763794 -7.7637787z"/>
        <path fill-rule="evenodd" stroke="#343a40" stroke-linecap="butt" stroke-linejoin="round" stroke-width="1.0" d="m368.95898 64.129974l0 0c0 -4.287819 3.4759827 -7.7637825 7.763794 -7.7637825l0 0c2.059082 0 4.033844 0.8179703 5.489807 2.27396c1.4559937 1.4559898 2.2739868 3.4307365 2.2739868 5.4898224l0 0c0 4.287819 -3.4759827 7.7637787 -7.763794 7.7637787l0 0c-4.2878113 0 -7.763794 -3.4759598 -7.763794 -7.7637787z"/>
        <path fill="#343a40" fill-rule="evenodd" d="m394.66302 64.129974l0 0c0 -4.287819 3.4759521 -7.7637825 7.763794 -7.7637825l0 0c2.059082 0 4.0338135 0.8179703 5.489807 2.27396c1.4559937 1.4559898 2.2739563 3.4307365 2.2739563 5.4898224l0 0c0 4.287819 -3.4759521 7.7637787 -7.7637634 7.7637787l0 0c-4.287842 0 -7.763794 -3.4759598 -7.763794 -7.7637787z"/>
        <path fill-rule="evenodd" stroke="#343a40" stroke-linecap="butt" stroke-linejoin="round" stroke-width="1.0" d="m394.66302 64.129974l0 0c0 -4.287819 3.4759521 -7.7637825 7.763794 -7.7637825l0 0c2.059082 0 4.0338135 0.8179703 5.489807 2.27396c1.4559937 1.4559898 2.2739563 3.4307365 2.2739563 5.4898224l0 0c0 4.287819 -3.4759521 7.7637787 -7.7637634 7.7637787l0 0c-4.287842 0 -7.763794 -3.4759598 -7.763794 -7.7637787z"/>
    </g>
</svg>
