<svg version="1.1" viewBox="0.0 0.0 960.0 720.0" fill="none" stroke="none" stroke-linecap="square" stroke-miterlimit="10" xmlns:xlink="http://www.w3.org/1999/xlink" xmlns="http://www.w3.org/2000/svg"><clipPath id="p.0"><path d="m0 0l960.0 0l0 720.0l-960.0 0l0 -720.0z" clip-rule="nonzero"/></clipPath><g clip-path="url(#p.0)"><path fill="#000000" fill-opacity="0.0" d="m0 0l960.0 0l0 720.0l-960.0 0z" fill-rule="evenodd"/><path fill="#000000" fill-opacity="0.0" d="m0 311.7244c60.0 0 90.0 28.393707 120.0 56.787415c30.0 28.393707 60.0 56.787415 120.0 56.787415" fill-rule="evenodd"/><path stroke="#4a8ae5" stroke-width="8.0" stroke-linejoin="round" stroke-linecap="butt" d="m0 311.7244c60.0 0 90.0 28.393707 120.0 56.787415c30.0 28.393707 60.0 56.787415 120.0 56.787415" fill-rule="evenodd"/><path fill="#000000" fill-opacity="0.0" d="m480.0 311.7244c-60.0 0 -90.0 28.393707 -120.0 56.787415c-30.0 28.393707 -60.0 56.787415 -120.0 56.787415" fill-rule="evenodd"/><path stroke="#4a8ae5" stroke-width="8.0" stroke-linejoin="round" stroke-linecap="butt" d="m480.0 311.7244c-60.0 0 -90.0 28.393707 -120.0 56.787415c-30.0 28.393707 -60.0 56.787415 -120.0 56.787415" fill-rule="evenodd"/><path fill="#000000" fill-opacity="0.0" d="m480.0 311.7244c60.0 0 90.0 28.393707 120.0 56.787415c30.0 28.393707 60.0 56.787415 120.0 56.787415" fill-rule="evenodd"/><path stroke="#4a8ae5" stroke-width="8.0" stroke-linejoin="round" stroke-linecap="butt" d="m480.0 311.7244c60.0 0 90.0 28.393707 120.0 56.787415c30.0 28.393707 60.0 56.787415 120.0 56.787415" fill-rule="evenodd"/><path fill="#000000" fill-opacity="0.0" d="m960.0 311.7244c-60.0 0 -90.0 28.393707 -120.0 56.787415c-30.0 28.393707 -60.0 56.787415 -120.0 56.787415" fill-rule="evenodd"/><path stroke="#4a8ae5" stroke-width="8.0" stroke-linejoin="round" stroke-linecap="butt" d="m960.0 311.7244c-60.0 0 -90.0 28.393707 -120.0 56.787415c-30.0 28.393707 -60.0 56.787415 -120.0 56.787415" fill-rule="evenodd"/><path fill="#4a8ae5" d="m3.6765637 308.04352c-73.25678 1.0730591 26.974192 3.985138 38.622047 7.356964c11.647858 3.3718262 18.238407 4.2917786 31.265095 12.874023c13.02668 8.582245 32.029305 26.05249 46.89501 38.619415c14.8657 12.566925 29.732277 27.89325 42.299217 36.782166c12.566925 8.8888855 23.753708 13.332886 33.102356 16.551178c9.348648 3.2182617 11.954941 1.9921265 22.989502 2.7585144c11.034561 0.76641846 30.037613 3.2191772 43.217834 1.8399048c13.180237 -1.3792725 24.675873 -4.9046326 35.863525 -10.1154785c11.187683 -5.2108765 21.300964 -13.793091 31.262482 -21.149628c9.961487 -7.3565063 19.004364 -15.479858 28.506561 -22.989502c9.502167 -7.509613 22.06955 -16.244537 28.506561 -22.068237c6.4370117 -5.8237 1.5332336 -7.510071 10.1154785 -12.874023c8.582245 -5.3639526 28.657928 -15.018799 41.37796 -19.309692c12.720032 -4.2908936 27.585724 -5.2095337 34.94226 -6.4356995c7.3565063 -1.2261658 87.35779 -0.614624 9.196838 -0.92126465c-78.16098 -0.30664062 -404.90594 -1.9916992 -478.16272 -0.91864014z" fill-rule="evenodd"/><path stroke="#4a8ae5" stroke-width="1.0" stroke-linejoin="round" stroke-linecap="butt" d="m3.6765637 308.04352c-73.25678 1.0730591 26.974192 3.985138 38.622047 7.356964c11.647858 3.3718262 18.238407 4.2917786 31.265095 12.874023c13.02668 8.582245 32.029305 26.05249 46.89501 38.619415c14.8657 12.566925 29.732277 27.89325 42.299217 36.782166c12.566925 8.8888855 23.753708 13.332886 33.102356 16.551178c9.348648 3.2182617 11.954941 1.9921265 22.989502 2.7585144c11.034561 0.76641846 30.037613 3.2191772 43.217834 1.8399048c13.180237 -1.3792725 24.675873 -4.9046326 35.863525 -10.1154785c11.187683 -5.2108765 21.300964 -13.793091 31.262482 -21.149628c9.961487 -7.3565063 19.004364 -15.479858 28.506561 -22.989502c9.502167 -7.509613 22.06955 -16.244537 28.506561 -22.068237c6.4370117 -5.8237 1.5332336 -7.510071 10.1154785 -12.874023c8.582245 -5.3639526 28.657928 -15.018799 41.37796 -19.309692c12.720032 -4.2908936 27.585724 -5.2095337 34.94226 -6.4356995c7.3565063 -1.2261658 87.35779 -0.614624 9.196838 -0.92126465c-78.16098 -0.30664062 -404.90594 -1.9916992 -478.16272 -0.91864014z" fill-rule="evenodd"/><path fill="#4a8ae5" d="m484.96527 308.04352c-73.256775 1.0730591 26.974213 3.985138 38.62207 7.356964c11.647827 3.3718262 18.238403 4.2917786 31.265076 12.874023c13.026672 8.582245 32.029297 26.05249 46.89502 38.619415c14.865723 12.566925 29.7323 27.89325 42.299194 36.782166c12.566956 8.8888855 23.753723 13.332886 33.102356 16.551178c9.348633 3.2182617 11.954956 1.9921265 22.989502 2.7585144c11.034546 0.76641846 30.037659 3.2191772 43.217896 1.8399048c13.180176 -1.3792725 24.675842 -4.9046326 35.863464 -10.1154785c11.187683 -5.2108765 21.300964 -13.793091 31.262512 -21.149628c9.961487 -7.3565063 19.004333 -15.479858 28.50653 -22.989502c9.502197 -7.509613 22.06958 -16.244537 28.506592 -22.068237c6.4370117 -5.8237 1.5332031 -7.510071 10.1154785 -12.874023c8.582214 -5.3639526 28.657898 -15.018799 41.37793 -19.309692c12.720032 -4.2908936 27.585754 -5.2095337 34.94226 -6.4356995c7.3565063 -1.2261658 87.35779 -0.614624 9.196838 -0.92126465c-78.16095 -0.30664062 -404.90594 -1.9916992 -478.16272 -0.91864014z" fill-rule="evenodd"/><path stroke="#4a8ae5" stroke-width="1.0" stroke-linejoin="round" stroke-linecap="butt" d="m484.96527 308.04352c-73.256775 1.0730591 26.974213 3.985138 38.62207 7.356964c11.647827 3.3718262 18.238403 4.2917786 31.265076 12.874023c13.026672 8.582245 32.029297 26.05249 46.89502 38.619415c14.865723 12.566925 29.7323 27.89325 42.299194 36.782166c12.566956 8.8888855 23.753723 13.332886 33.102356 16.551178c9.348633 3.2182617 11.954956 1.9921265 22.989502 2.7585144c11.034546 0.76641846 30.037659 3.2191772 43.217896 1.8399048c13.180176 -1.3792725 24.675842 -4.9046326 35.863464 -10.1154785c11.187683 -5.2108765 21.300964 -13.793091 31.262512 -21.149628c9.961487 -7.3565063 19.004333 -15.479858 28.50653 -22.989502c9.502197 -7.509613 22.06958 -16.244537 28.506592 -22.068237c6.4370117 -5.8237 1.5332031 -7.510071 10.1154785 -12.874023c8.582214 -5.3639526 28.657898 -15.018799 41.37793 -19.309692c12.720032 -4.2908936 27.585754 -5.2095337 34.94226 -6.4356995c7.3565063 -1.2261658 87.35779 -0.614624 9.196838 -0.92126465c-78.16095 -0.30664062 -404.90594 -1.9916992 -478.16272 -0.91864014z" fill-rule="evenodd"/><path fill="#ffffff" d="m505.1942 266.43832l0 0c0 -0.46676636 0.37841797 -0.8451538 0.8451843 -0.8451538l65.33328 0c0.22418213 0 0.43914795 0.08905029 0.5975952 0.2475586c0.1585083 0.15847778 0.2475586 0.3734436 0.2475586 0.5975952l0 3.3805542c0 0.46676636 -0.37835693 0.8451538 -0.8451538 0.8451538l-65.33328 0c-0.46676636 0 -0.8451843 -0.37838745 -0.8451843 -0.8451538z" fill-rule="evenodd"/><path stroke="#ffffff" stroke-width="1.0" stroke-linejoin="round" stroke-linecap="butt" d="m505.1942 266.43832l0 0c0 -0.46676636 0.37841797 -0.8451538 0.8451843 -0.8451538l65.33328 0c0.22418213 0 0.43914795 0.08905029 0.5975952 0.2475586c0.1585083 0.15847778 0.2475586 0.3734436 0.2475586 0.5975952l0 3.3805542c0 0.46676636 -0.37835693 0.8451538 -0.8451538 0.8451538l-65.33328 0c-0.46676636 0 -0.8451843 -0.37838745 -0.8451843 -0.8451538z" fill-rule="evenodd"/><path fill="#ffffff" d="m505.1942 284.7614l0 0c0 -0.46676636 0.37841797 -0.8451538 0.8451843 -0.8451538l41.427765 0c0.22418213 0 0.43914795 0.08905029 0.59765625 0.24752808c0.15844727 0.1585083 0.24749756 0.37347412 0.24749756 0.59762573l0 3.3805542c0 0.46676636 -0.37835693 0.8451538 -0.8451538 0.8451538l-41.427765 0c-0.46676636 0 -0.8451843 -0.37838745 -0.8451843 -0.8451538z" fill-rule="evenodd"/><path stroke="#ffffff" stroke-width="1.0" stroke-linejoin="round" stroke-linecap="butt" d="m505.1942 284.7614l0 0c0 -0.46676636 0.37841797 -0.8451538 0.8451843 -0.8451538l41.427765 0c0.22418213 0 0.43914795 0.08905029 0.59765625 0.24752808c0.15844727 0.1585083 0.24749756 0.37347412 0.24749756 0.59762573l0 3.3805542c0 0.46676636 -0.37835693 0.8451538 -0.8451538 0.8451538l-41.427765 0c-0.46676636 0 -0.8451843 -0.37838745 -0.8451843 -0.8451538z" fill-rule="evenodd"/><path fill="#ffffff" d="m854.0656 268.7638l0 0c0 -0.46676636 0.37841797 -0.8451538 0.8451538 -0.8451538l54.97113 0c0.2241211 0 0.4390869 0.08905029 0.5975952 0.24752808c0.1585083 0.1585083 0.2475586 0.37347412 0.2475586 0.59762573l0 3.3805542c0 0.46676636 -0.37841797 0.8451538 -0.8451538 0.8451538l-54.97113 0c-0.46673584 0 -0.8451538 -0.37838745 -0.8451538 -0.8451538z" fill-rule="evenodd"/><path stroke="#ffffff" stroke-width="1.0" stroke-linejoin="round" stroke-linecap="butt" d="m854.0656 268.7638l0 0c0 -0.46676636 0.37841797 -0.8451538 0.8451538 -0.8451538l54.97113 0c0.2241211 0 0.4390869 0.08905029 0.5975952 0.24752808c0.1585083 0.1585083 0.2475586 0.37347412 0.2475586 0.59762573l0 3.3805542c0 0.46676636 -0.37841797 0.8451538 -0.8451538 0.8451538l-54.97113 0c-0.46673584 0 -0.8451538 -0.37838745 -0.8451538 -0.8451538z" fill-rule="evenodd"/><path fill="#ffffff" d="m854.0656 284.55933l0 0c0 -0.46676636 0.37841797 -0.8451843 0.8451538 -0.8451843l41.427795 0c0.22418213 0 0.43914795 0.08905029 0.5975952 0.2475586c0.1585083 0.1585083 0.2475586 0.37347412 0.2475586 0.59762573l0 3.3805237c0 0.46676636 -0.37835693 0.8451843 -0.8451538 0.8451843l-41.427795 0c-0.46673584 0 -0.8451538 -0.37841797 -0.8451538 -0.8451843z" fill-rule="evenodd"/><path stroke="#ffffff" stroke-width="1.0" stroke-linejoin="round" stroke-linecap="butt" d="m854.0656 284.55933l0 0c0 -0.46676636 0.37841797 -0.8451843 0.8451538 -0.8451843l41.427795 0c0.22418213 0 0.43914795 0.08905029 0.5975952 0.2475586c0.1585083 0.1585083 0.2475586 0.37347412 0.2475586 0.59762573l0 3.3805237c0 0.46676636 -0.37835693 0.8451843 -0.8451538 0.8451843l-41.427795 0c-0.46673584 0 -0.8451538 -0.37841797 -0.8451538 -0.8451843z" fill-rule="evenodd"/><path fill="#ffffff" d="m854.0656 300.559l0 0c0 -0.46676636 0.37841797 -0.8451538 0.8451538 -0.8451538l35.632507 0c0.22418213 0 0.43914795 0.08905029 0.59765625 0.24752808c0.15844727 0.1585083 0.24749756 0.37347412 0.24749756 0.59762573l0 3.3805542c0 0.46676636 -0.37835693 0.8451538 -0.8451538 0.8451538l-35.632507 0c-0.46673584 0 -0.8451538 -0.37838745 -0.8451538 -0.8451538z" fill-rule="evenodd"/><path stroke="#ffffff" stroke-width="1.0" stroke-linejoin="round" stroke-linecap="butt" d="m854.0656 300.559l0 0c0 -0.46676636 0.37841797 -0.8451538 0.8451538 -0.8451538l35.632507 0c0.22418213 0 0.43914795 0.08905029 0.59765625 0.24752808c0.15844727 0.1585083 0.24749756 0.37347412 0.24749756 0.59762573l0 3.3805542c0 0.46676636 -0.37835693 0.8451538 -0.8451538 0.8451538l-35.632507 0c-0.46673584 0 -0.8451538 -0.37838745 -0.8451538 -0.8451538z" fill-rule="evenodd"/><path fill="#ffffff" d="m16.921259 276.96326l0 0c0 -0.46676636 0.37839317 -0.8451538 0.84516144 -0.8451538l65.333305 0c0.22414398 0 0.43911743 0.08905029 0.5976181 0.2475586c0.15849304 0.15847778 0.24754333 0.37347412 0.24754333 0.5975952l0 3.3805542c0 0.46676636 -0.37839508 0.8451538 -0.84516144 0.8451538l-65.333305 0c-0.46676826 0 -0.84516144 -0.37838745 -0.84516144 -0.8451538z" fill-rule="evenodd"/><path stroke="#ffffff" stroke-width="1.0" stroke-linejoin="round" stroke-linecap="butt" d="m16.921259 276.96326l0 0c0 -0.46676636 0.37839317 -0.8451538 0.84516144 -0.8451538l65.333305 0c0.22414398 0 0.43911743 0.08905029 0.5976181 0.2475586c0.15849304 0.15847778 0.24754333 0.37347412 0.24754333 0.5975952l0 3.3805542c0 0.46676636 -0.37839508 0.8451538 -0.84516144 0.8451538l-65.333305 0c-0.46676826 0 -0.84516144 -0.37838745 -0.84516144 -0.8451538z" fill-rule="evenodd"/><path fill="#ffffff" d="m16.921259 292.65875l0 0c0 -0.46676636 0.37839317 -0.8451538 0.84516144 -0.8451538l54.9711 0c0.22415161 0 0.43911743 0.08905029 0.5976181 0.2475586c0.15850067 0.15847778 0.24754333 0.3734436 0.24754333 0.5975952l0 3.3805542c0 0.46676636 -0.37839508 0.8451538 -0.84516144 0.8451538l-54.9711 0c-0.46676826 0 -0.84516144 -0.37838745 -0.84516144 -0.8451538z" fill-rule="evenodd"/><path stroke="#ffffff" stroke-width="1.0" stroke-linejoin="round" stroke-linecap="butt" d="m16.921259 292.65875l0 0c0 -0.46676636 0.37839317 -0.8451538 0.84516144 -0.8451538l54.9711 0c0.22415161 0 0.43911743 0.08905029 0.5976181 0.2475586c0.15850067 0.15847778 0.24754333 0.3734436 0.24754333 0.5975952l0 3.3805542c0 0.46676636 -0.37839508 0.8451538 -0.84516144 0.8451538l-54.9711 0c-0.46676826 0 -0.84516144 -0.37838745 -0.84516144 -0.8451538z" fill-rule="evenodd"/><path fill="#ffffff" d="m16.921259 261.36746l0 0c0 -0.46676636 0.37839317 -0.8451538 0.84516144 -0.8451538l35.632515 0c0.22415161 0 0.43912125 0.08905029 0.5976181 0.2475586c0.15850067 0.15847778 0.24754333 0.3734436 0.24754333 0.5975952l0 3.3805542c0 0.46676636 -0.37839127 0.8451538 -0.84516144 0.8451538l-35.632515 0c-0.46676826 0 -0.84516144 -0.37838745 -0.84516144 -0.8451538z" fill-rule="evenodd"/><path stroke="#ffffff" stroke-width="1.0" stroke-linejoin="round" stroke-linecap="butt" d="m16.921259 261.36746l0 0c0 -0.46676636 0.37839317 -0.8451538 0.84516144 -0.8451538l35.632515 0c0.22415161 0 0.43912125 0.08905029 0.5976181 0.2475586c0.15850067 0.15847778 0.24754333 0.3734436 0.24754333 0.5975952l0 3.3805542c0 0.46676636 -0.37839127 0.8451538 -0.84516144 0.8451538l-35.632515 0c-0.46676826 0 -0.84516144 -0.37838745 -0.84516144 -0.8451538z" fill-rule="evenodd"/><path fill="#cfe2f3" d="m11.034121 316.77954l0 0c0 -2.79187 2.6792412 -5.0551453 5.984253 -5.0551453l0 0c3.3050098 0 5.984251 2.2632751 5.984251 5.0551453l0 0c0 2.7918396 -2.6792412 5.0551147 -5.984251 5.0551147l0 0c-3.3050117 0 -5.984253 -2.2632751 -5.984253 -5.0551147z" fill-rule="evenodd"/><path stroke="#000000" stroke-width="1.0" stroke-linejoin="round" stroke-linecap="butt" d="m11.034121 316.77954l0 0c0 -2.79187 2.6792412 -5.0551453 5.984253 -5.0551453l0 0c3.3050098 0 5.984251 2.2632751 5.984251 5.0551453l0 0c0 2.7918396 -2.6792412 5.0551147 -5.984251 5.0551147l0 0c-3.3050117 0 -5.984253 -2.2632751 -5.984253 -5.0551147z" fill-rule="evenodd"/><path fill="#4a8ae5" d="m215.17192 470.43307l0 0c0 -0.46676636 0.37838745 -0.8451538 0.8451538 -0.8451538l65.3333 0c0.22415161 0 0.43911743 0.08905029 0.59762573 0.2475586c0.1585083 0.15847778 0.24752808 0.3734436 0.24752808 0.5975952l0 3.3805542c0 0.46676636 -0.37838745 0.8451538 -0.8451538 0.8451538l-65.3333 0c-0.46676636 0 -0.8451538 -0.37838745 -0.8451538 -0.8451538z" fill-rule="evenodd"/><path stroke="#4a8ae5" stroke-width="1.0" stroke-linejoin="round" stroke-linecap="butt" d="m215.17192 470.43307l0 0c0 -0.46676636 0.37838745 -0.8451538 0.8451538 -0.8451538l65.3333 0c0.22415161 0 0.43911743 0.08905029 0.59762573 0.2475586c0.1585083 0.15847778 0.24752808 0.3734436 0.24752808 0.5975952l0 3.3805542c0 0.46676636 -0.37838745 0.8451538 -0.8451538 0.8451538l-65.3333 0c-0.46676636 0 -0.8451538 -0.37838745 -0.8451538 -0.8451538z" fill-rule="evenodd"/><path fill="#4a8ae5" d="m215.17192 454.83728l0 0c0 -0.46676636 0.37838745 -0.8451538 0.8451538 -0.8451538l35.632507 0c0.22415161 0 0.4391327 0.08905029 0.59762573 0.24752808c0.15849304 0.1585083 0.24754333 0.37347412 0.24754333 0.59762573l0 3.3805542c0 0.46676636 -0.37838745 0.8451538 -0.84516907 0.8451538l-35.632507 0c-0.46676636 0 -0.8451538 -0.37838745 -0.8451538 -0.8451538z" fill-rule="evenodd"/><path stroke="#4a8ae5" stroke-width="1.0" stroke-linejoin="round" stroke-linecap="butt" d="m215.17192 454.83728l0 0c0 -0.46676636 0.37838745 -0.8451538 0.8451538 -0.8451538l35.632507 0c0.22415161 0 0.4391327 0.08905029 0.59762573 0.24752808c0.15849304 0.1585083 0.24754333 0.37347412 0.24754333 0.59762573l0 3.3805542c0 0.46676636 -0.37838745 0.8451538 -0.84516907 0.8451538l-35.632507 0c-0.46676636 0 -0.8451538 -0.37838745 -0.8451538 -0.8451538z" fill-rule="evenodd"/><path fill="#4a8ae5" d="m701.6417 454.53546l0 0c0 -0.46676636 0.37841797 -0.8451843 0.8451538 -0.8451843l54.97113 0c0.2241211 0 0.4390869 0.08905029 0.5975952 0.2475586c0.1585083 0.1585083 0.2475586 0.37347412 0.2475586 0.59762573l0 3.3805237c0 0.46676636 -0.37841797 0.8451843 -0.8451538 0.8451843l-54.97113 0c-0.46673584 0 -0.8451538 -0.37841797 -0.8451538 -0.8451843z" fill-rule="evenodd"/><path stroke="#4a8ae5" stroke-width="1.0" stroke-linejoin="round" stroke-linecap="butt" d="m701.6417 454.53546l0 0c0 -0.46676636 0.37841797 -0.8451843 0.8451538 -0.8451843l54.97113 0c0.2241211 0 0.4390869 0.08905029 0.5975952 0.2475586c0.1585083 0.1585083 0.2475586 0.37347412 0.2475586 0.59762573l0 3.3805237c0 0.46676636 -0.37841797 0.8451843 -0.8451538 0.8451843l-54.97113 0c-0.46673584 0 -0.8451538 -0.37841797 -0.8451538 -0.8451843z" fill-rule="evenodd"/><path fill="#4a8ae5" d="m715.18506 470.43332l0 0c0 -0.46676636 0.37835693 -0.8451538 0.8451538 -0.8451538l41.427795 0c0.2241211 0 0.4390869 0.08905029 0.5975952 0.2475586c0.1585083 0.15847778 0.2475586 0.3734436 0.2475586 0.5975952l0 3.3805542c0 0.46676636 -0.37841797 0.8451538 -0.8451538 0.8451538l-41.427795 0c-0.46679688 0 -0.8451538 -0.37838745 -0.8451538 -0.8451538z" fill-rule="evenodd"/><path stroke="#4a8ae5" stroke-width="1.0" stroke-linejoin="round" stroke-linecap="butt" d="m715.18506 470.43332l0 0c0 -0.46676636 0.37835693 -0.8451538 0.8451538 -0.8451538l41.427795 0c0.2241211 0 0.4390869 0.08905029 0.5975952 0.2475586c0.1585083 0.15847778 0.2475586 0.3734436 0.2475586 0.5975952l0 3.3805542c0 0.46676636 -0.37841797 0.8451538 -0.8451538 0.8451538l-41.427795 0c-0.46679688 0 -0.8451538 -0.37838745 -0.8451538 -0.8451538z" fill-rule="evenodd"/><path fill="#4a8ae5" d="m720.9803 486.33066l0 0c0 -0.46679688 0.37841797 -0.8451843 0.84521484 -0.8451843l35.632507 0c0.2241211 0 0.4390869 0.08905029 0.5975952 0.2475586c0.1585083 0.15847778 0.2475586 0.37347412 0.2475586 0.59762573l0 3.3805237c0 0.46676636 -0.37841797 0.8451538 -0.8451538 0.8451538l-35.632507 0c-0.46679688 0 -0.84521484 -0.37838745 -0.84521484 -0.8451538z" fill-rule="evenodd"/><path stroke="#4a8ae5" stroke-width="1.0" stroke-linejoin="round" stroke-linecap="butt" d="m720.9803 486.33066l0 0c0 -0.46679688 0.37841797 -0.8451843 0.84521484 -0.8451843l35.632507 0c0.2241211 0 0.4390869 0.08905029 0.5975952 0.2475586c0.1585083 0.15847778 0.2475586 0.37347412 0.2475586 0.59762573l0 3.3805237c0 0.46676636 -0.37841797 0.8451538 -0.8451538 0.8451538l-35.632507 0c-0.46679688 0 -0.84521484 -0.37838745 -0.84521484 -0.8451538z" fill-rule="evenodd"/></g></svg>