<svg xmlns="http://www.w3.org/2000/svg" xmlns:xlink="http://www.w3.org/1999/xlink" fill="none" stroke="none" stroke-linecap="square" stroke-miterlimit="10" version="1.1" viewBox="0.0 0.0 944.4593175853018 235.08136482939634">
    <clipPath id="p.0">
        <path d="m0 0l944.4593 0l0 235.08136l-944.4593 0l0 -235.08136z" clip-rule="nonzero"/>
    </clipPath>
    <g clip-path="url(#p.0)">
        <path fill="#000000" fill-opacity="0.0" fill-rule="evenodd" d="m0 0l944.4593 0l0 235.08136l-944.4593 0z"/>
        <path fill="#000000" fill-opacity="0.0" fill-rule="evenodd" d="m-3.0446193 51.2021c60.0 0 90.0 28.393703 120.0 56.787403c30.0 28.393707 60.0 56.7874 120.0 56.7874"/>
        <path fill-rule="evenodd" stroke="#ffffff" stroke-linecap="butt" stroke-linejoin="round" stroke-width="8.0" d="m-3.0446193 51.2021c60.0 0 90.0 28.393703 120.0 56.787403c30.0 28.393707 60.0 56.7874 120.0 56.7874"/>
        <path fill="#000000" fill-opacity="0.0" fill-rule="evenodd" d="m476.95538 51.2021c-60.0 0 -90.0 28.393703 -120.0 56.787403c-30.0 28.393707 -60.0 56.7874 -120.0 56.7874"/>
        <path fill-rule="evenodd" stroke="#ffffff" stroke-linecap="butt" stroke-linejoin="round" stroke-width="8.0" d="m476.95538 51.2021c-60.0 0 -90.0 28.393703 -120.0 56.787403c-30.0 28.393707 -60.0 56.7874 -120.0 56.7874"/>
        <path fill="#000000" fill-opacity="0.0" fill-rule="evenodd" d="m476.95538 51.2021c60.0 0 90.0 28.393703 120.0 56.787403c30.0 28.393707 60.0 56.7874 120.0 56.7874"/>
        <path fill-rule="evenodd" stroke="#ffffff" stroke-linecap="butt" stroke-linejoin="round" stroke-width="8.0" d="m476.95538 51.2021c60.0 0 90.0 28.393703 120.0 56.787403c30.0 28.393707 60.0 56.7874 120.0 56.7874"/>
        <path fill="#000000" fill-opacity="0.0" fill-rule="evenodd" d="m956.9554 51.2021c-60.0 0 -90.0 28.393703 -120.0 56.787403c-30.0 28.393707 -60.0 56.7874 -120.0 56.7874"/>
        <path fill-rule="evenodd" stroke="#ffffff" stroke-linecap="butt" stroke-linejoin="round" stroke-width="8.0" d="m956.9554 51.2021c-60.0 0 -90.0 28.393703 -120.0 56.787403c-30.0 28.393707 -60.0 56.7874 -120.0 56.7874"/>
        <path fill="#ffffff" fill-rule="evenodd" d="m502.1496 5.9160275l0 0c0 -0.4667697 0.37838745 -0.84516144 0.8451843 -0.84516144l65.33328 0c0.22418213 0 0.43914795 0.08904362 0.5975952 0.2475419c0.1585083 0.15849876 0.2475586 0.37346888 0.2475586 0.59761953l0 3.3805432c0 0.46677017 -0.37835693 0.84516144 -0.8451538 0.84516144l-65.33328 0c-0.46679688 0 -0.8451843 -0.37839127 -0.8451843 -0.84516144z"/>
        <path fill-rule="evenodd" stroke="#ffffff" stroke-linecap="butt" stroke-linejoin="round" stroke-width="1.0" d="m502.1496 5.9160275l0 0c0 -0.4667697 0.37838745 -0.84516144 0.8451843 -0.84516144l65.33328 0c0.22418213 0 0.43914795 0.08904362 0.5975952 0.2475419c0.1585083 0.15849876 0.2475586 0.37346888 0.2475586 0.59761953l0 3.3805432c0 0.46677017 -0.37835693 0.84516144 -0.8451538 0.84516144l-65.33328 0c-0.46679688 0 -0.8451843 -0.37839127 -0.8451843 -0.84516144z"/>
        <path fill="#ffffff" fill-rule="evenodd" d="m502.1496 24.239107l0 0c0 -0.46677017 0.37838745 -0.84516144 0.8451843 -0.84516144l41.427765 0c0.22418213 0 0.43914795 0.08904266 0.59765625 0.24754143c0.15844727 0.15849876 0.24749756 0.3734684 0.24749756 0.59762l0 3.3805428c0 0.46677017 -0.37835693 0.84516144 -0.8451538 0.84516144l-41.427765 0c-0.46679688 0 -0.8451843 -0.37839127 -0.8451843 -0.84516144z"/>
        <path fill-rule="evenodd" stroke="#ffffff" stroke-linecap="butt" stroke-linejoin="round" stroke-width="1.0" d="m502.1496 24.239107l0 0c0 -0.46677017 0.37838745 -0.84516144 0.8451843 -0.84516144l41.427765 0c0.22418213 0 0.43914795 0.08904266 0.59765625 0.24754143c0.15844727 0.15849876 0.24749756 0.3734684 0.24749756 0.59762l0 3.3805428c0 0.46677017 -0.37835693 0.84516144 -0.8451538 0.84516144l-41.427765 0c-0.46679688 0 -0.8451843 -0.37839127 -0.8451843 -0.84516144z"/>
        <path fill="#ffffff" fill-rule="evenodd" d="m851.021 8.241487l0 0c0 -0.4667697 0.37841797 -0.84516096 0.8451538 -0.84516096l54.97113 0c0.2241211 0 0.4390869 0.08904362 0.5975952 0.2475419c0.1585083 0.15849829 0.2475586 0.3734684 0.2475586 0.59761906l0 3.3805437c0 0.46677017 -0.37841797 0.84516144 -0.8451538 0.84516144l-54.97113 0c-0.46673584 0 -0.8451538 -0.37839127 -0.8451538 -0.84516144z"/>
        <path fill-rule="evenodd" stroke="#ffffff" stroke-linecap="butt" stroke-linejoin="round" stroke-width="1.0" d="m851.021 8.241487l0 0c0 -0.4667697 0.37841797 -0.84516096 0.8451538 -0.84516096l54.97113 0c0.2241211 0 0.4390869 0.08904362 0.5975952 0.2475419c0.1585083 0.15849829 0.2475586 0.3734684 0.2475586 0.59761906l0 3.3805437c0 0.46677017 -0.37841797 0.84516144 -0.8451538 0.84516144l-54.97113 0c-0.46673584 0 -0.8451538 -0.37839127 -0.8451538 -0.84516144z"/>
        <path fill="#ffffff" fill-rule="evenodd" d="m851.021 24.037006l0 0c0 -0.46676826 0.37841797 -0.84515953 0.8451538 -0.84515953l41.427795 0c0.22418213 0 0.43914795 0.08904266 0.5975952 0.24754143c0.1585083 0.15849876 0.2475586 0.3734684 0.2475586 0.5976181l0 3.3805447c0 0.46677017 -0.37835693 0.84516144 -0.8451538 0.84516144l-41.427795 0c-0.46673584 0 -0.8451538 -0.37839127 -0.8451538 -0.84516144z"/>
        <path fill-rule="evenodd" stroke="#ffffff" stroke-linecap="butt" stroke-linejoin="round" stroke-width="1.0" d="m851.021 24.037006l0 0c0 -0.46676826 0.37841797 -0.84515953 0.8451538 -0.84515953l41.427795 0c0.22418213 0 0.43914795 0.08904266 0.5975952 0.24754143c0.1585083 0.15849876 0.2475586 0.3734684 0.2475586 0.5976181l0 3.3805447c0 0.46677017 -0.37835693 0.84516144 -0.8451538 0.84516144l-41.427795 0c-0.46673584 0 -0.8451538 -0.37839127 -0.8451538 -0.84516144z"/>
        <path fill="#ffffff" fill-rule="evenodd" d="m851.021 40.036682l0 0c0 -0.46677017 0.37841797 -0.84516144 0.8451538 -0.84516144l35.632507 0c0.22418213 0 0.43914795 0.08904266 0.59765625 0.24753952c0.15844727 0.15850067 0.24749756 0.3734703 0.24749756 0.5976219l0 3.3805428c0 0.46677017 -0.37835693 0.84516144 -0.8451538 0.84516144l-35.632507 0c-0.46673584 0 -0.8451538 -0.37839127 -0.8451538 -0.84516144z"/>
        <path fill-rule="evenodd" stroke="#ffffff" stroke-linecap="butt" stroke-linejoin="round" stroke-width="1.0" d="m851.021 40.036682l0 0c0 -0.46677017 0.37841797 -0.84516144 0.8451538 -0.84516144l35.632507 0c0.22418213 0 0.43914795 0.08904266 0.59765625 0.24753952c0.15844727 0.15850067 0.24749756 0.3734703 0.24749756 0.5976219l0 3.3805428c0 0.46677017 -0.37835693 0.84516144 -0.8451538 0.84516144l-35.632507 0c-0.46673584 0 -0.8451538 -0.37839127 -0.8451538 -0.84516144z"/>
        <path fill="#ffffff" fill-rule="evenodd" d="m13.87664 16.440962l0 0c0 -0.46677017 0.37839127 -0.84516144 0.84516144 -0.84516144l65.3333 0c0.22415161 0 0.43912506 0.08904362 0.5976181 0.24754238c0.15850067 0.15849781 0.24754333 0.37346745 0.24754333 0.59761906l0 3.3805428c0 0.46677017 -0.37838745 0.84516144 -0.84516144 0.84516144l-65.3333 0c-0.46677017 0 -0.84516144 -0.37839127 -0.84516144 -0.84516144z"/>
        <path fill-rule="evenodd" stroke="#ffffff" stroke-linecap="butt" stroke-linejoin="round" stroke-width="1.0" d="m13.87664 16.440962l0 0c0 -0.46677017 0.37839127 -0.84516144 0.84516144 -0.84516144l65.3333 0c0.22415161 0 0.43912506 0.08904362 0.5976181 0.24754238c0.15850067 0.15849781 0.24754333 0.37346745 0.24754333 0.59761906l0 3.3805428c0 0.46677017 -0.37838745 0.84516144 -0.84516144 0.84516144l-65.3333 0c-0.46677017 0 -0.84516144 -0.37839127 -0.84516144 -0.84516144z"/>
        <path fill="#ffffff" fill-rule="evenodd" d="m13.87664 32.136456l0 0c0 -0.46677017 0.37839127 -0.84516335 0.84516144 -0.84516335l54.971092 0c0.22415161 0 0.43912506 0.08904457 0.5976181 0.24754333c0.15850067 0.15849876 0.24754333 0.3734684 0.24754333 0.59762l0 3.3805428c0 0.46677017 -0.37838745 0.84516144 -0.84516144 0.84516144l-54.971092 0c-0.46677017 0 -0.84516144 -0.37839127 -0.84516144 -0.84516144z"/>
        <path fill-rule="evenodd" stroke="#ffffff" stroke-linecap="butt" stroke-linejoin="round" stroke-width="1.0" d="m13.87664 32.136456l0 0c0 -0.46677017 0.37839127 -0.84516335 0.84516144 -0.84516335l54.971092 0c0.22415161 0 0.43912506 0.08904457 0.5976181 0.24754333c0.15850067 0.15849876 0.24754333 0.3734684 0.24754333 0.59762l0 3.3805428c0 0.46677017 -0.37838745 0.84516144 -0.84516144 0.84516144l-54.971092 0c-0.46677017 0 -0.84516144 -0.37839127 -0.84516144 -0.84516144z"/>
        <path fill="#ffffff" fill-rule="evenodd" d="m13.87664 0.84516126l0 0c0 -0.46676967 0.37839127 -0.84516126 0.84516144 -0.84516126l35.63251 0c0.22415161 0 0.43912125 0.08904352 0.5976219 0.24754201c0.15849686 0.15849848 0.24753952 0.37346852 0.24753952 0.59761924l0 3.3805435c0 0.4667697 -0.37839127 0.84516144 -0.84516144 0.84516144l-35.63251 0c-0.46677017 0 -0.84516144 -0.37839174 -0.84516144 -0.84516144z"/>
        <path fill-rule="evenodd" stroke="#ffffff" stroke-linecap="butt" stroke-linejoin="round" stroke-width="1.0" d="m13.87664 0.84516126l0 0c0 -0.46676967 0.37839127 -0.84516126 0.84516144 -0.84516126l35.63251 0c0.22415161 0 0.43912125 0.08904352 0.5976219 0.24754201c0.15849686 0.15849848 0.24753952 0.37346852 0.24753952 0.59761924l0 3.3805435c0 0.4667697 -0.37839127 0.84516144 -0.84516144 0.84516144l-35.63251 0c-0.46677017 0 -0.84516144 -0.37839174 -0.84516144 -0.84516144z"/>
        <path fill="#cfe2f3" fill-rule="evenodd" d="m7.9895015 56.257217l0 0c0 -2.7918625 2.6792407 -5.0551186 5.9842515 -5.0551186l0 0c3.3050117 0 5.984253 2.263256 5.984253 5.0551186l0 0c0 2.7918663 -2.6792412 5.0551186 -5.984253 5.0551186l0 0c-3.3050108 0 -5.9842515 -2.2632523 -5.9842515 -5.0551186z"/>
        <path fill-rule="evenodd" stroke="#ffffff" stroke-linecap="butt" stroke-linejoin="round" stroke-width="1.0" d="m7.9895015 56.257217l0 0c0 -2.7918625 2.6792407 -5.0551186 5.9842515 -5.0551186l0 0c3.3050117 0 5.984253 2.263256 5.984253 5.0551186l0 0c0 2.7918663 -2.6792412 5.0551186 -5.984253 5.0551186l0 0c-3.3050108 0 -5.9842515 -2.2632523 -5.9842515 -5.0551186z"/>
        <path fill="#000000" fill-opacity="0.0" fill-rule="evenodd" d="m212.1273 209.91078l0 0c0 -0.46676636 0.37838745 -0.84516907 0.8451538 -0.84516907l65.3333 0c0.22415161 0 0.43911743 0.08905029 0.59762573 0.24754333c0.1585083 0.1585083 0.24752808 0.37347412 0.24752808 0.59762573l0 3.380539c0 0.46676636 -0.37838745 0.84516907 -0.8451538 0.84516907l-65.3333 0c-0.46676636 0 -0.8451538 -0.3784027 -0.8451538 -0.84516907z"/>
        <path fill-rule="evenodd" stroke="#ffffff" stroke-linecap="butt" stroke-linejoin="round" stroke-width="1.0" d="m212.1273 209.91078l0 0c0 -0.46676636 0.37838745 -0.84516907 0.8451538 -0.84516907l65.3333 0c0.22415161 0 0.43911743 0.08905029 0.59762573 0.24754333c0.1585083 0.1585083 0.24752808 0.37347412 0.24752808 0.59762573l0 3.380539c0 0.46676636 -0.37838745 0.84516907 -0.8451538 0.84516907l-65.3333 0c-0.46676636 0 -0.8451538 -0.3784027 -0.8451538 -0.84516907z"/>
        <path fill="#000000" fill-opacity="0.0" fill-rule="evenodd" d="m212.1273 194.31497l0 0c0 -0.46676636 0.37838745 -0.8451538 0.8451538 -0.8451538l35.632507 0c0.22415161 0 0.4391327 0.089035034 0.59762573 0.24754333c0.15849304 0.15849304 0.24754333 0.37345886 0.24754333 0.5976105l0 3.3805542c0 0.46676636 -0.37838745 0.8451538 -0.84516907 0.8451538l-35.632507 0c-0.46676636 0 -0.8451538 -0.37838745 -0.8451538 -0.8451538z"/>
        <path fill-rule="evenodd" stroke="#ffffff" stroke-linecap="butt" stroke-linejoin="round" stroke-width="1.0" d="m212.1273 194.31497l0 0c0 -0.46676636 0.37838745 -0.8451538 0.8451538 -0.8451538l35.632507 0c0.22415161 0 0.4391327 0.089035034 0.59762573 0.24754333c0.15849304 0.15849304 0.24754333 0.37345886 0.24754333 0.5976105l0 3.3805542c0 0.46676636 -0.37838745 0.8451538 -0.84516907 0.8451538l-35.632507 0c-0.46676636 0 -0.8451538 -0.37838745 -0.8451538 -0.8451538z"/>
        <path fill="#000000" fill-opacity="0.0" fill-rule="evenodd" d="m698.5971 194.01314l0 0c0 -0.46676636 0.37841797 -0.8451538 0.8451538 -0.8451538l54.97113 0c0.2241211 0 0.4390869 0.089035034 0.5975952 0.24754333c0.1585083 0.15849304 0.2475586 0.37345886 0.2475586 0.5976105l0 3.380539c0 0.46678162 -0.37841797 0.84516907 -0.8451538 0.84516907l-54.97113 0c-0.46673584 0 -0.8451538 -0.37838745 -0.8451538 -0.84516907z"/>
        <path fill-rule="evenodd" stroke="#ffffff" stroke-linecap="butt" stroke-linejoin="round" stroke-width="1.0" d="m698.5971 194.01314l0 0c0 -0.46676636 0.37841797 -0.8451538 0.8451538 -0.8451538l54.97113 0c0.2241211 0 0.4390869 0.089035034 0.5975952 0.24754333c0.1585083 0.15849304 0.2475586 0.37345886 0.2475586 0.5976105l0 3.380539c0 0.46678162 -0.37841797 0.84516907 -0.8451538 0.84516907l-54.97113 0c-0.46673584 0 -0.8451538 -0.37838745 -0.8451538 -0.84516907z"/>
        <path fill="#000000" fill-opacity="0.0" fill-rule="evenodd" d="m712.14044 209.91103l0 0c0 -0.46676636 0.37835693 -0.84516907 0.8451538 -0.84516907l41.427795 0c0.2241211 0 0.4390869 0.08905029 0.5975952 0.24754333c0.1585083 0.1585083 0.2475586 0.37347412 0.2475586 0.59762573l0 3.380539c0 0.46676636 -0.37841797 0.84516907 -0.8451538 0.84516907l-41.427795 0c-0.46679688 0 -0.8451538 -0.3784027 -0.8451538 -0.84516907z"/>
        <path fill-rule="evenodd" stroke="#ffffff" stroke-linecap="butt" stroke-linejoin="round" stroke-width="1.0" d="m712.14044 209.91103l0 0c0 -0.46676636 0.37835693 -0.84516907 0.8451538 -0.84516907l41.427795 0c0.2241211 0 0.4390869 0.08905029 0.5975952 0.24754333c0.1585083 0.1585083 0.2475586 0.37347412 0.2475586 0.59762573l0 3.380539c0 0.46676636 -0.37841797 0.84516907 -0.8451538 0.84516907l-41.427795 0c-0.46679688 0 -0.8451538 -0.3784027 -0.8451538 -0.84516907z"/>
        <path fill="#000000" fill-opacity="0.0" fill-rule="evenodd" d="m717.93567 225.80833l0 0c0 -0.46676636 0.37841797 -0.84516907 0.84521484 -0.84516907l35.632507 0c0.2241211 0 0.4390869 0.08905029 0.5975952 0.24754333c0.1585083 0.1585083 0.2475586 0.37347412 0.2475586 0.59762573l0 3.380539c0 0.46676636 -0.37841797 0.84516907 -0.8451538 0.84516907l-35.632507 0c-0.46679688 0 -0.84521484 -0.3784027 -0.84521484 -0.84516907z"/>
        <path fill-rule="evenodd" stroke="#ffffff" stroke-linecap="butt" stroke-linejoin="round" stroke-width="1.0" d="m717.93567 225.80833l0 0c0 -0.46676636 0.37841797 -0.84516907 0.84521484 -0.84516907l35.632507 0c0.2241211 0 0.4390869 0.08905029 0.5975952 0.24754333c0.1585083 0.1585083 0.2475586 0.37347412 0.2475586 0.59762573l0 3.380539c0 0.46676636 -0.37841797 0.84516907 -0.8451538 0.84516907l-35.632507 0c-0.46679688 0 -0.84521484 -0.3784027 -0.84521484 -0.84516907z"/>
    </g>
</svg>
